<svg width="110" height="33" viewBox="0 0 110 33" fill="none" xmlns="http://www.w3.org/2000/svg">
<g clip-path="url(#clip0_2306_60)">
<path d="M29.1455 8.22727V5.72727H46.6V8.22727H39.2818V29H36.4636V8.22727H29.1455ZM66.417 17.3636C66.417 19.8182 65.9739 21.9394 65.0875 23.7273C64.2011 25.5152 62.9852 26.8939 61.4398 27.8636C59.8943 28.8333 58.1292 29.3182 56.1443 29.3182C54.1595 29.3182 52.3943 28.8333 50.8489 27.8636C49.3034 26.8939 48.0875 25.5152 47.2011 23.7273C46.3148 21.9394 45.8716 19.8182 45.8716 17.3636C45.8716 14.9091 46.3148 12.7879 47.2011 11C48.0875 9.21212 49.3034 7.83333 50.8489 6.86364C52.3943 5.89394 54.1595 5.40909 56.1443 5.40909C58.1292 5.40909 59.8943 5.89394 61.4398 6.86364C62.9852 7.83333 64.2011 9.21212 65.0875 11C65.9739 12.7879 66.417 14.9091 66.417 17.3636ZM63.6898 17.3636C63.6898 15.3485 63.3527 13.6477 62.6784 12.2614C62.0117 10.875 61.1064 9.82576 59.9625 9.11364C58.8261 8.40151 57.5534 8.04545 56.1443 8.04545C54.7352 8.04545 53.4587 8.40151 52.3148 9.11364C51.1784 9.82576 50.2731 10.875 49.5989 12.2614C48.9322 13.6477 48.5989 15.3485 48.5989 17.3636C48.5989 19.3788 48.9322 21.0795 49.5989 22.4659C50.2731 23.8523 51.1784 24.9015 52.3148 25.6136C53.4587 26.3258 54.7352 26.6818 56.1443 26.6818C57.5534 26.6818 58.8261 26.3258 59.9625 25.6136C61.1064 24.9015 62.0117 23.8523 62.6784 22.4659C63.3527 21.0795 63.6898 19.3788 63.6898 17.3636ZM75.1375 29H67.9557V5.72727H75.4557C77.7133 5.72727 79.6451 6.19318 81.2511 7.125C82.8572 8.04924 84.0883 9.37879 84.9443 11.1136C85.8004 12.8409 86.2284 14.9091 86.2284 17.3182C86.2284 19.7424 85.7966 21.8295 84.933 23.5795C84.0693 25.322 82.8117 26.6629 81.1602 27.6023C79.5087 28.5341 77.5011 29 75.1375 29ZM70.7739 26.5H74.9557C76.8799 26.5 78.4746 26.1288 79.7398 25.3864C81.0049 24.6439 81.9481 23.5871 82.5693 22.2159C83.1905 20.8447 83.5011 19.2121 83.5011 17.3182C83.5011 15.4394 83.1943 13.822 82.5807 12.4659C81.967 11.1023 81.0504 10.0568 79.8307 9.32954C78.611 8.5947 77.092 8.22727 75.2739 8.22727H70.7739V26.5ZM107.392 17.3636C107.392 19.8182 106.949 21.9394 106.062 23.7273C105.176 25.5152 103.96 26.8939 102.415 27.8636C100.869 28.8333 99.1042 29.3182 97.1193 29.3182C95.1345 29.3182 93.3693 28.8333 91.8239 27.8636C90.2784 26.8939 89.0625 25.5152 88.1761 23.7273C87.2898 21.9394 86.8466 19.8182 86.8466 17.3636C86.8466 14.9091 87.2898 12.7879 88.1761 11C89.0625 9.21212 90.2784 7.83333 91.8239 6.86364C93.3693 5.89394 95.1345 5.40909 97.1193 5.40909C99.1042 5.40909 100.869 5.89394 102.415 6.86364C103.96 7.83333 105.176 9.21212 106.062 11C106.949 12.7879 107.392 14.9091 107.392 17.3636ZM104.665 17.3636C104.665 15.3485 104.328 13.6477 103.653 12.2614C102.987 10.875 102.081 9.82576 100.938 9.11364C99.8011 8.40151 98.5284 8.04545 97.1193 8.04545C95.7102 8.04545 94.4337 8.40151 93.2898 9.11364C92.1534 9.82576 91.2481 10.875 90.5739 12.2614C89.9072 13.6477 89.5739 15.3485 89.5739 17.3636C89.5739 19.3788 89.9072 21.0795 90.5739 22.4659C91.2481 23.8523 92.1534 24.9015 93.2898 25.6136C94.4337 26.3258 95.7102 26.6818 97.1193 26.6818C98.5284 26.6818 99.8011 26.3258 100.938 25.6136C102.081 24.9015 102.987 23.8523 103.653 22.4659C104.328 21.0795 104.665 19.3788 104.665 17.3636Z" fill="#CCDBDC"/>
<line x1="3.08619" y1="29.5939" x2="15.0862" y2="2.59386" stroke="#CCDBDC" stroke-width="2"/>
<line x1="11.0862" y1="29.5939" x2="23.0862" y2="2.59386" stroke="#CCDBDC" stroke-width="2"/>
</g>
<defs>
<clipPath id="clip0_2306_60">
<rect width="110" height="33" fill="white"/>
</clipPath>
</defs>
</svg>
